<?xml version="1.0" encoding="UTF-8"?>
<!DOCTYPE svg PUBLIC "-//W3C//DTD SVG 1.1//EN" "http://www.w3.org/Graphics/SVG/1.1/DTD/svg11.dtd">
<!-- Creator: CorelDRAW 2021 (64-Bit) -->
<svg xmlns="http://www.w3.org/2000/svg" xml:space="preserve" width="0.287209in" height="0.0987244in" version="1.1" style="shape-rendering:geometricPrecision; text-rendering:geometricPrecision; image-rendering:optimizeQuality; fill-rule:evenodd; clip-rule:evenodd"
viewBox="0 0 3.64 1.25"
 xmlns:xlink="http://www.w3.org/1999/xlink"
 xmlns:xodm="http://www.corel.com/coreldraw/odm/2003">
 <defs>
  <style type="text/css">
   <![CDATA[
    .fil0 {fill:#5DE87B}
    .fil1 {fill:#30322F;fill-rule:nonzero}
   ]]>
  </style>
 </defs>
 <g id="Layer_x0020_1">
  <metadata id="CorelCorpID_0Corel-Layer"/>
  <g id="_2941574043984">
   <polygon class="fil0" points="-0,0.51 0.42,1.25 1.5,0 0.46,0.68 "/>
   <path class="fil1" d="M1.53 1.24c-0.09,0 -0.17,-0.02 -0.24,-0.06 -0.07,-0.04 -0.13,-0.09 -0.17,-0.16 -0.04,-0.07 -0.06,-0.14 -0.06,-0.23 0,-0.08 0.02,-0.16 0.06,-0.23 0.04,-0.07 0.1,-0.12 0.17,-0.16 0.07,-0.04 0.15,-0.06 0.24,-0.06 0.09,0 0.17,0.02 0.24,0.06 0.07,0.04 0.13,0.09 0.17,0.16 0.04,0.07 0.06,0.14 0.06,0.23 0,0.08 -0.02,0.16 -0.06,0.23 -0.04,0.07 -0.1,0.12 -0.17,0.16 -0.07,0.04 -0.15,0.06 -0.24,0.06zm0 -0.25c0.04,0 0.07,-0.01 0.1,-0.03 0.03,-0.02 0.05,-0.04 0.07,-0.07 0.02,-0.03 0.02,-0.07 0.02,-0.11 0,-0.04 -0.01,-0.08 -0.02,-0.11 -0.02,-0.03 -0.04,-0.05 -0.07,-0.07 -0.03,-0.02 -0.06,-0.03 -0.1,-0.03 -0.04,0 -0.07,0.01 -0.1,0.03 -0.03,0.02 -0.05,0.04 -0.07,0.07 -0.02,0.03 -0.02,0.07 -0.02,0.11 0,0.04 0.01,0.07 0.02,0.11 0.02,0.03 0.04,0.06 0.07,0.07 0.03,0.02 0.06,0.03 0.1,0.03zm0.71 0.23l-0 -1.21 0.27 0 0 1.21 -0.27 0zm-0.2 -0.63l0 -0.23 0.66 0 0 0.23 -0.66 -0zm1.18 0.65c-0.09,0 -0.18,-0.02 -0.25,-0.06 -0.07,-0.04 -0.13,-0.09 -0.17,-0.16 -0.04,-0.07 -0.06,-0.15 -0.06,-0.23 0,-0.09 0.02,-0.16 0.06,-0.23 0.04,-0.07 0.1,-0.12 0.17,-0.16 0.07,-0.04 0.15,-0.06 0.23,-0.06 0.08,0 0.16,0.02 0.22,0.05 0.06,0.04 0.12,0.09 0.15,0.15 0.04,0.06 0.06,0.14 0.06,0.22 0,0.02 -0,0.03 -0,0.05 -0,0.02 -0,0.04 -0.01,0.06l-0.74 0 0 -0.19 0.63 -0 -0.12 0.08c-0,-0.05 -0.01,-0.09 -0.02,-0.12 -0.01,-0.03 -0.04,-0.06 -0.06,-0.07 -0.03,-0.02 -0.06,-0.03 -0.1,-0.03 -0.04,0 -0.08,0.01 -0.11,0.03 -0.03,0.02 -0.06,0.05 -0.07,0.08 -0.02,0.04 -0.03,0.08 -0.03,0.13 0,0.05 0.01,0.09 0.03,0.13 0.02,0.04 0.04,0.06 0.08,0.08 0.03,0.02 0.07,0.03 0.12,0.03 0.04,0 0.08,-0.01 0.11,-0.02 0.03,-0.01 0.06,-0.04 0.09,-0.07l0.15 0.15c-0.04,0.05 -0.09,0.09 -0.15,0.11 -0.06,0.02 -0.13,0.04 -0.2,0.04z"/>
  </g>
 </g>
</svg>
